<?xml version="1.0" encoding="UTF-8"?>
<!DOCTYPE svg PUBLIC "-//W3C//DTD SVG 1.1//EN" "http://www.w3.org/Graphics/SVG/1.1/DTD/svg11.dtd">
<svg xmlns="http://www.w3.org/2000/svg" version="1.1" width="500px" height="500px" style="shape-rendering:geometricPrecision; text-rendering:geometricPrecision; image-rendering:optimizeQuality; fill-rule:evenodd; clip-rule:evenodd" xmlns:xlink="http://www.w3.org/1999/xlink">
<g><path style="opacity:1" fill="#000000" d="M -0.5,-0.5 C 166.167,-0.5 332.833,-0.5 499.5,-0.5C 499.5,166.167 499.5,332.833 499.5,499.5C 332.833,499.5 166.167,499.5 -0.5,499.5C -0.5,332.833 -0.5,166.167 -0.5,-0.5 Z"/></g>
<g><path style="opacity:1" fill="#8cc735" d="M 171.5,56.5 C 194.211,53.8443 214.877,59.0109 233.5,72C 239.777,77.0524 245.944,82.219 252,87.5C 259.867,80.6335 268.034,74.1335 276.5,68C 303.456,53.3745 330.789,52.7078 358.5,66C 359.451,66.7175 359.617,67.5509 359,68.5C 348.565,79.9405 337.232,90.2738 325,99.5C 309.492,82.635 292.826,81.3016 275,95.5C 264.086,109.517 263.753,123.85 274,138.5C 291.917,154.077 308.917,153.077 325,135.5C 326.599,132.199 328.099,128.865 329.5,125.5C 337.347,121.412 344.681,116.579 351.5,111C 361.012,102.154 370.512,93.3206 380,84.5C 381.944,85.4394 383.611,86.7727 385,88.5C 400.001,110.153 404.335,133.82 398,159.5C 389.799,165.348 380.632,168.848 370.5,170C 360.833,170.667 351.167,170.667 341.5,170C 328.031,167.633 314.698,164.633 301.5,161C 281.795,155.47 264.962,159.97 251,174.5C 245.697,184.476 238.863,193.309 230.5,201C 221.079,207.271 210.746,209.605 199.5,208C 198.988,198.988 194.322,193.488 185.5,191.5C 185.589,181.349 182.089,172.683 175,165.5C 159.013,150.006 140.013,140.339 118,136.5C 113.269,136.546 108.769,137.546 104.5,139.5C 104.379,102.924 121.045,77.0911 154.5,62C 160.254,60.0252 165.921,58.1919 171.5,56.5 Z"/></g>
<g><path style="opacity:1" fill="#1a93cb" d="M 382.5,63.5 C 392.334,62.5006 399.834,66.1673 405,74.5C 419.798,97.0272 425.798,121.694 423,148.5C 418.868,162.964 410.035,173.464 396.5,180C 389.337,182.624 382.004,184.624 374.5,186C 362.5,186.667 350.5,186.667 338.5,186C 323.417,183.05 308.417,179.717 293.5,176C 283.473,173.842 274.473,175.842 266.5,182C 261.052,188.395 256.219,195.228 252,202.5C 233.924,223.395 211.758,229.395 185.5,220.5C 180.261,221.906 175.261,221.239 170.5,218.5C 164.218,227.805 155.551,233.305 144.5,235C 128.006,236.738 112.006,234.738 96.5,229C 87.4375,224.72 82.4375,217.554 81.5,207.5C 75.3005,204.765 73.1338,200.099 75,193.5C 78.6246,186.449 84.1246,184.615 91.5,188C 97.082,192.739 97.9154,198.239 94,204.5C 92.1039,205.68 90.6039,207.18 89.5,209C 90.1517,214.981 93.1517,219.314 98.5,222C 104.256,224.516 110.256,226.182 116.5,227C 127.167,227.667 137.833,227.667 148.5,227C 167.734,217.343 173.9,202.177 167,181.5C 153.013,164.757 135.179,155.257 113.5,153C 110.248,154.256 107.581,156.256 105.5,159C 108.602,171.228 103.935,176.561 91.5,175C 82.6905,168.795 82.3572,162.129 90.5,155C 93.7527,153.964 97.086,153.297 100.5,153C 108.551,145.447 117.884,143.447 128.5,147C 141.275,151.883 152.941,158.549 163.5,167C 173.262,174.768 177.928,184.935 177.5,197.5C 181.285,198.981 184.952,200.647 188.5,202.5C 189.749,205.943 189.416,209.277 187.5,212.5C 209.546,221.522 228.712,217.188 245,199.5C 250.167,190.01 256.667,181.51 264.5,174C 267.554,171.806 270.888,170.139 274.5,169C 282.167,168.333 289.833,168.333 297.5,169C 312.569,173.601 327.902,176.934 343.5,179C 359.897,180.845 375.897,179.178 391.5,174C 409.205,166.602 417.538,153.269 416.5,134C 415.297,114.057 409.464,95.5566 399,78.5C 392.658,69.4702 385.158,68.3035 376.5,75C 365.833,85 355.167,95 344.5,105C 337.624,110.858 329.957,115.524 321.5,119C 318.108,134.539 308.441,141.539 292.5,140C 279.422,134.916 273.922,125.416 276,111.5C 282.841,95.2434 294.341,90.7434 310.5,98C 315.084,101.593 318.584,106.093 321,111.5C 326.08,109.045 330.913,106.212 335.5,103C 347.103,93.3993 358.103,83.066 368.5,72C 372.832,68.4772 377.499,65.6439 382.5,63.5 Z"/></g>
<g><path style="opacity:1" fill="#8ac535" d="M 115.5,161.5 C 131.868,165.021 146.035,172.687 158,184.5C 163.38,197.183 160.714,207.849 150,216.5C 141.667,208.833 133.333,201.167 125,193.5C 120.445,187.945 116.279,182.112 112.5,176C 115.056,171.528 116.056,166.695 115.5,161.5 Z"/></g>
<g><path style="opacity:1" fill="#1a96d0" d="M 278.5,184.5 C 284.888,184.312 291.222,184.812 297.5,186C 308.833,188.667 320.167,191.333 331.5,194C 346.848,195.517 362.181,195.85 377.5,195C 335.983,232.685 294.316,270.185 252.5,307.5C 224.833,282.833 197.167,258.167 169.5,233.5C 170.54,231.625 172.04,230.292 174,229.5C 181.265,230.036 188.432,231.203 195.5,233C 219.996,236.17 240.496,228.67 257,210.5C 261.58,204.34 265.914,198.007 270,191.5C 272.441,188.546 275.275,186.213 278.5,184.5 Z"/></g>
<g><path style="opacity:1" fill="#04577e" d="M 250.5,342.5 C 256.158,341.673 261.158,343.007 265.5,346.5C 269.008,351.844 267.675,354.011 261.5,353C 260.151,348.49 257.151,346.823 252.5,348C 251.24,349.814 251.24,351.647 252.5,353.5C 257.896,355.279 262.73,357.945 267,361.5C 268.26,366.814 266.426,370.647 261.5,373C 257.833,373.667 254.167,373.667 250.5,373C 246.345,371.189 244.345,368.023 244.5,363.5C 248.527,363.006 251.527,364.506 253.5,368C 257.175,369.297 259.842,368.297 261.5,365C 261.355,364.228 261.022,363.561 260.5,363C 256.419,361.529 252.419,359.862 248.5,358C 242.859,352.036 243.526,346.869 250.5,342.5 Z"/></g>
<g><path style="opacity:1" fill="#04587f" d="M 276.5,342.5 C 281.412,342.063 286.078,342.896 290.5,345C 292.93,347.305 293.93,350.138 293.5,353.5C 291.5,353.5 289.5,353.5 287.5,353.5C 286.877,348.712 284.21,346.879 279.5,348C 276.833,350 276.833,352 279.5,354C 284.767,355.193 289.267,357.693 293,361.5C 294.737,367.084 292.904,370.917 287.5,373C 283.833,373.667 280.167,373.667 276.5,373C 272.844,370.851 270.844,367.684 270.5,363.5C 272.833,363.5 275.167,363.5 277.5,363.5C 278.174,368.151 280.841,369.651 285.5,368C 287.527,366.604 287.86,364.938 286.5,363C 282.016,361.257 277.683,359.257 273.5,357C 270.209,351.169 271.209,346.336 276.5,342.5 Z"/></g>
<g><path style="opacity:1" fill="#045980" d="M 312.5,342.5 C 319.738,341.07 325.238,343.404 329,349.5C 329.87,355.917 329.536,362.251 328,368.5C 323.86,373.211 318.694,374.711 312.5,373C 310,371.833 308.167,370 307,367.5C 306.333,361.167 306.333,354.833 307,348.5C 308.36,345.977 310.193,343.977 312.5,342.5 Z"/></g>
<g><path style="opacity:1" fill="#045980" d="M 368.5,342.5 C 374.652,341.408 379.818,343.075 384,347.5C 384.494,349.134 384.66,350.801 384.5,352.5C 382.5,352.5 380.5,352.5 378.5,352.5C 377.615,348.216 374.949,346.716 370.5,348C 368.473,349.396 368.14,351.062 369.5,353C 374.694,354.847 379.528,357.347 384,360.5C 386.367,364.999 385.533,368.832 381.5,372C 377.289,373.534 372.956,373.867 368.5,373C 364.345,371.189 362.345,368.023 362.5,363.5C 366.193,362.944 368.86,364.278 370.5,367.5C 373.883,369.228 376.55,368.561 378.5,365.5C 378.471,363.971 377.804,362.804 376.5,362C 370.726,361.038 366.226,358.205 363,353.5C 362.176,348.482 364.009,344.815 368.5,342.5 Z"/></g>
<g><path style="opacity:1" fill="#045880" d="M 406.5,342.5 C 416.176,340.312 421.51,343.979 422.5,353.5C 420.5,353.5 418.5,353.5 416.5,353.5C 416.11,348.466 413.444,346.633 408.5,348C 405.833,350 405.833,352 408.5,354C 412.85,355.449 417.016,357.282 421,359.5C 423.303,364.038 422.803,368.205 419.5,372C 413.304,374.436 407.471,373.936 402,370.5C 400.798,368.323 400.298,365.989 400.5,363.5C 402.5,363.5 404.5,363.5 406.5,363.5C 407.174,368.151 409.841,369.651 414.5,368C 416.527,366.604 416.86,364.938 415.5,363C 409.959,361.315 405.126,358.482 401,354.5C 400.333,352.167 400.333,349.833 401,347.5C 402.73,345.598 404.563,343.931 406.5,342.5 Z"/></g>
<g><path style="opacity:1" fill="#04577e" d="M 75.5,342.5 C 77.7925,342.244 79.9592,342.577 82,343.5C 83.4909,349.13 84.8243,354.797 86,360.5C 87.3781,354.6 88.8781,348.766 90.5,343C 92.7695,342.242 94.9361,342.409 97,343.5C 98.3333,348.833 99.6667,354.167 101,359.5C 102.818,354.263 104.318,348.93 105.5,343.5C 107.396,342.534 109.396,342.201 111.5,342.5C 109.488,352.909 107.154,363.243 104.5,373.5C 102.208,373.756 100.041,373.423 98,372.5C 97.1208,366.982 95.6208,361.649 93.5,356.5C 91.6578,362.044 90.3245,367.711 89.5,373.5C 87.2075,373.756 85.0408,373.423 83,372.5C 80.4925,362.47 77.9925,352.47 75.5,342.5 Z"/></g>
<g><path style="opacity:1" fill="#045981" d="M 115.5,342.5 C 122.5,342.5 129.5,342.5 136.5,342.5C 136.5,344.5 136.5,346.5 136.5,348.5C 131.5,348.5 126.5,348.5 121.5,348.5C 121.5,350.833 121.5,353.167 121.5,355.5C 124.833,355.5 128.167,355.5 131.5,355.5C 131.5,357.167 131.5,358.833 131.5,360.5C 128.167,360.5 124.833,360.5 121.5,360.5C 121.5,363.167 121.5,365.833 121.5,368.5C 126.5,368.5 131.5,368.5 136.5,368.5C 136.5,370.167 136.5,371.833 136.5,373.5C 129.5,373.5 122.5,373.5 115.5,373.5C 115.5,363.167 115.5,352.833 115.5,342.5 Z"/></g>
<g><path style="opacity:1" fill="#045c85" d="M 161.5,368.5 C 162.451,369.919 162.784,371.585 162.5,373.5C 155.5,373.5 148.5,373.5 141.5,373.5C 141.5,363.5 141.5,353.5 141.5,343.5C 143.167,343.5 144.833,343.5 146.5,343.5C 146.5,351.833 146.5,360.167 146.5,368.5C 151.5,368.5 156.5,368.5 161.5,368.5 Z"/></g>
<g><path style="opacity:1" fill="#02354d" d="M 161.5,368.5 C 156.5,368.5 151.5,368.5 146.5,368.5C 146.5,360.167 146.5,351.833 146.5,343.5C 144.833,343.5 143.167,343.5 141.5,343.5C 141.5,353.5 141.5,363.5 141.5,373.5C 140.506,363.347 140.172,353.014 140.5,342.5C 142.833,342.5 145.167,342.5 147.5,342.5C 147.5,350.833 147.5,359.167 147.5,367.5C 152.363,367.181 157.03,367.514 161.5,368.5 Z"/></g>
<g><path style="opacity:1" fill="#045c85" d="M 186.5,368.5 C 187.451,369.919 187.784,371.585 187.5,373.5C 180.5,373.5 173.5,373.5 166.5,373.5C 166.5,363.5 166.5,353.5 166.5,343.5C 168.167,343.5 169.833,343.5 171.5,343.5C 171.5,351.833 171.5,360.167 171.5,368.5C 176.5,368.5 181.5,368.5 186.5,368.5 Z"/></g>
<g><path style="opacity:1" fill="#02354d" d="M 186.5,368.5 C 181.5,368.5 176.5,368.5 171.5,368.5C 171.5,360.167 171.5,351.833 171.5,343.5C 169.833,343.5 168.167,343.5 166.5,343.5C 166.5,353.5 166.5,363.5 166.5,373.5C 165.506,363.347 165.172,353.014 165.5,342.5C 167.833,342.5 170.167,342.5 172.5,342.5C 172.5,350.833 172.5,359.167 172.5,367.5C 177.363,367.181 182.03,367.514 186.5,368.5 Z"/></g>
<g><path style="opacity:1" fill="#045a82" d="M 191.5,342.5 C 193.604,342.201 195.604,342.534 197.5,343.5C 201,349.167 204.5,354.833 208,360.5C 208.499,354.509 208.666,348.509 208.5,342.5C 210.5,342.5 212.5,342.5 214.5,342.5C 214.5,352.833 214.5,363.167 214.5,373.5C 212.396,373.799 210.396,373.466 208.5,372.5C 205,366.833 201.5,361.167 198,355.5C 197.501,361.491 197.334,367.491 197.5,373.5C 195.5,373.5 193.5,373.5 191.5,373.5C 191.5,363.167 191.5,352.833 191.5,342.5 Z"/></g>
<g><path style="opacity:1" fill="#045981" d="M 220.5,342.5 C 227.5,342.5 234.5,342.5 241.5,342.5C 241.5,344.5 241.5,346.5 241.5,348.5C 236.5,348.5 231.5,348.5 226.5,348.5C 226.5,350.833 226.5,353.167 226.5,355.5C 229.833,355.5 233.167,355.5 236.5,355.5C 236.5,357.167 236.5,358.833 236.5,360.5C 233.167,360.5 229.833,360.5 226.5,360.5C 226.5,363.167 226.5,365.833 226.5,368.5C 231.5,368.5 236.5,368.5 241.5,368.5C 241.5,370.167 241.5,371.833 241.5,373.5C 234.5,373.5 227.5,373.5 220.5,373.5C 220.5,363.167 220.5,352.833 220.5,342.5 Z"/></g>
<g><path style="opacity:1" fill="#04587f" d="M 342.5,342.5 C 345.119,342.232 347.619,342.565 350,343.5C 353.478,353.414 356.644,363.414 359.5,373.5C 355.221,374.546 352.555,373.046 351.5,369C 347.833,368.333 344.167,368.333 340.5,369C 339.62,370.356 339.286,371.856 339.5,373.5C 337.167,373.5 334.833,373.5 332.5,373.5C 335.439,363.017 338.772,352.684 342.5,342.5 Z"/></g>
<g><path style="opacity:1" fill="#045981" d="M 389.5,342.5 C 391.5,342.5 393.5,342.5 395.5,342.5C 395.5,352.833 395.5,363.167 395.5,373.5C 393.5,373.5 391.5,373.5 389.5,373.5C 389.5,363.167 389.5,352.833 389.5,342.5 Z"/></g>
<g><path style="opacity:1" fill="#020609" d="M 315.5,347.5 C 318.961,347.146 321.461,348.479 323,351.5C 323.667,355.833 323.667,360.167 323,364.5C 320.451,368.925 317.118,369.592 313,366.5C 312.333,361.167 312.333,355.833 313,350.5C 314.045,349.627 314.878,348.627 315.5,347.5 Z"/></g>
<g><path style="opacity:1" fill="#02070b" d="M 345.5,350.5 C 347.898,354.403 349.231,358.736 349.5,363.5C 347.167,363.5 344.833,363.5 342.5,363.5C 343.029,359.051 344.029,354.718 345.5,350.5 Z"/></g>
<g><path style="opacity:1" fill="#a4d063" d="M 129.5,409.5 C 131.308,410.918 131.975,412.918 131.5,415.5C 133.833,415.5 136.167,415.5 138.5,415.5C 139.235,407.61 139.902,407.776 140.5,416C 140.167,418.167 139.833,420.333 139.5,422.5C 138.548,420.955 138.215,419.288 138.5,417.5C 136.167,417.5 133.833,417.5 131.5,417.5C 131.785,419.288 131.452,420.955 130.5,422.5C 129.508,418.217 129.174,413.884 129.5,409.5 Z"/></g>
<g><path style="opacity:1" fill="#89ae52" d="M 179.5,408.5 C 180.5,408.5 181.5,408.5 182.5,408.5C 182.5,413.167 182.5,417.833 182.5,422.5C 181.5,422.5 180.5,422.5 179.5,422.5C 179.5,417.833 179.5,413.167 179.5,408.5 Z"/></g>
<g><path style="opacity:1" fill="#9bc65e" d="M 190.5,410.5 C 192.213,411.305 193.879,412.305 195.5,413.5C 194.675,414.386 193.675,414.719 192.5,414.5C 192.5,416.5 192.5,418.5 192.5,420.5C 193.675,420.281 194.675,420.614 195.5,421.5C 193.994,422.747 192.494,422.747 191,421.5C 190.9,418.563 190.067,415.896 188.5,413.5C 189.612,412.735 190.279,411.735 190.5,410.5 Z"/></g>
<g><path style="opacity:1" fill="#89af53" d="M 337.5,410.5 C 339.711,410.967 341.711,411.967 343.5,413.5C 342.675,414.386 341.675,414.719 340.5,414.5C 340.16,417.144 340.827,419.477 342.5,421.5C 340.994,422.747 339.494,422.747 338,421.5C 337.095,417.745 336.928,414.079 337.5,410.5 Z"/></g>
<g><path style="opacity:1" fill="#9ac45d" d="M 289.5,409.5 C 292.119,409.232 294.619,409.565 297,410.5C 297.688,411.332 297.521,411.998 296.5,412.5C 292.71,410.773 290.044,411.773 288.5,415.5C 289.558,420.029 292.224,421.362 296.5,419.5C 297.711,420.274 297.711,421.107 296.5,422C 290.372,424.029 287.038,421.863 286.5,415.5C 286.628,413.045 287.628,411.045 289.5,409.5 Z"/></g>
<g><path style="opacity:1" fill="#95bd5a" d="M 202.5,408.5 C 204.117,409.589 204.95,411.256 205,413.5C 207.592,412.018 209.925,412.352 212,414.5C 212.497,417.146 212.664,419.813 212.5,422.5C 211.5,422.5 210.5,422.5 209.5,422.5C 209.663,420.143 209.497,417.81 209,415.5C 207.667,414.167 206.333,414.167 205,415.5C 204.814,417.9 204.314,420.234 203.5,422.5C 202.507,417.88 202.173,413.214 202.5,408.5 Z"/></g>
<g><path style="opacity:1" fill="#a2cf62" d="M 250.5,412.5 C 252.225,413.278 253.891,413.611 255.5,413.5C 253.233,416.029 251.899,419.029 251.5,422.5C 250.513,419.232 250.18,415.898 250.5,412.5 Z"/></g>
<g><path style="opacity:1" fill="#92ba58" d="M 320.5,412.5 C 323.085,413.072 325.751,413.239 328.5,413C 330.34,415.826 331.006,418.993 330.5,422.5C 329.5,422.5 328.5,422.5 327.5,422.5C 327.663,420.143 327.497,417.81 327,415.5C 325.413,414.273 324.079,414.606 323,416.5C 322.808,418.577 322.308,420.577 321.5,422.5C 320.513,419.232 320.18,415.898 320.5,412.5 Z"/></g>
<g><path style="opacity:1" fill="#a0cc60" d="M 365.5,412.5 C 367.585,413.35 369.585,413.684 371.5,413.5C 368.301,415.571 366.634,418.571 366.5,422.5C 365.513,419.232 365.18,415.898 365.5,412.5 Z"/></g>
<g><path style="opacity:1" fill="#9bc65e" d="M 165.5,412.5 C 172.32,412.601 174.32,415.934 171.5,422.5C 169.071,422.579 166.571,422.245 164,421.5C 163.28,419.888 163.446,418.388 164.5,417C 172.297,416.449 172.297,415.449 164.5,414C 165.056,413.617 165.389,413.117 165.5,412.5 Z"/></g>
<g><path style="opacity:1" fill="#99c35c" d="M 220.5,412.5 C 223.073,412.148 225.406,412.648 227.5,414C 227,414.5 226.5,415 226,415.5C 221.167,413.667 219.667,415.167 221.5,420C 223.235,420.651 224.902,420.485 226.5,419.5C 227.711,420.274 227.711,421.107 226.5,422C 218.424,422.805 216.424,419.638 220.5,412.5 Z"/></g>
<g><path style="opacity:1" fill="#99c25c" d="M 306.5,412.5 C 311.339,411.677 313.673,413.677 313.5,418.5C 311.143,418.337 308.81,418.503 306.5,419C 308.202,420.718 310.035,420.885 312,419.5C 312.5,420 313,420.5 313.5,421C 311.386,422.518 309.053,422.851 306.5,422C 303.888,418.836 303.888,415.669 306.5,412.5 Z"/></g>
<g><path style="opacity:1" fill="#0d1008" d="M 307.5,414.5 C 308.978,414.238 310.311,414.571 311.5,415.5C 309.926,416.631 308.259,416.798 306.5,416C 307.056,415.617 307.389,415.117 307.5,414.5 Z"/></g>
<g><path style="opacity:1" fill="#99c25c" d="M 351.5,412.5 C 356.339,411.677 358.673,413.677 358.5,418.5C 356.143,418.337 353.81,418.503 351.5,419C 353.202,420.718 355.035,420.885 357,419.5C 357.5,420 358,420.5 358.5,421C 356.386,422.518 354.053,422.851 351.5,422C 348.888,418.836 348.888,415.669 351.5,412.5 Z"/></g>
<g><path style="opacity:1" fill="#0d1008" d="M 352.5,414.5 C 353.978,414.238 355.311,414.571 356.5,415.5C 354.926,416.631 353.259,416.798 351.5,416C 352.056,415.617 352.389,415.117 352.5,414.5 Z"/></g>
<g><path style="opacity:1" fill="#99c35d" d="M 235.5,412.5 C 237.792,412.244 239.959,412.577 242,413.5C 242.821,416.554 242.655,419.554 241.5,422.5C 239.071,422.579 236.571,422.245 234,421.5C 233.858,417.323 236.025,415.489 240.5,416C 238.715,414.837 236.715,414.17 234.5,414C 235.056,413.617 235.389,413.117 235.5,412.5 Z"/></g>
<g><path style="opacity:1" fill="#91b857" d="M 150.5,412.5 C 155.339,411.677 157.673,413.677 157.5,418.5C 155.076,418.192 152.743,418.526 150.5,419.5C 152.135,420.681 153.802,420.681 155.5,419.5C 156.711,420.274 156.711,421.107 155.5,422C 150.932,423.65 148.266,422.15 147.5,417.5C 147.757,415.308 148.757,413.641 150.5,412.5 Z"/></g>
<g><path style="opacity:1" fill="#10130a" d="M 150.5,414.5 C 152.429,414.231 154.095,414.731 155.5,416C 154.667,416.167 153.833,416.333 153,416.5C 151.624,416.316 150.791,415.649 150.5,414.5 Z"/></g>
<g><path style="opacity:1" fill="#90b757" d="M 263.5,412.5 C 268.787,411.138 271.454,413.138 271.5,418.5C 261.531,418.248 261.197,419.082 270.5,421C 268.386,422.518 266.053,422.851 263.5,422C 260.888,418.836 260.888,415.669 263.5,412.5 Z"/></g>
<g><path style="opacity:1" fill="#11140a" d="M 264.5,414.5 C 265.978,414.238 267.311,414.571 268.5,415.5C 266.926,416.631 265.259,416.798 263.5,416C 264.056,415.617 264.389,415.117 264.5,414.5 Z"/></g>
<g><path style="opacity:1" fill="#0c0f07" d="M 165.5,418.5 C 166.978,418.238 168.311,418.571 169.5,419.5C 168.833,419.833 168.167,420.167 167.5,420.5C 166.287,420.253 165.62,419.586 165.5,418.5 Z"/></g>
<g><path style="opacity:1" fill="#010100" d="M 236.5,418.5 C 240.588,418.218 241.088,418.885 238,420.5C 236.97,420.164 236.47,419.497 236.5,418.5 Z"/></g>
</svg>
